{
  "accessors": [
    {
      "bufferView": 2,
      "componentType": 5126,
      "count": 245,
      "max": [
        129.37635803222656,
        304.4992370605469,
        117.07646179199219
      ],
      "min": [
        -120.692626953125,
        -282.1198425292969,
        -13.045555114746094
      ],
      "type": "VEC3"
    },
    {
      "bufferView": 2,
      "byteOffset": 2940,
      "componentType": 5126,
      "count": 245,
      "max": [
        1.0,
        1.0,
        0.9698660969734192
      ],
      "min": [
        -1.0,
        -0.9998377561569214,
        -0.9999937415122986
      ],
      "type": "VEC3"
    },
    {
      "bufferView": 1,
      "componentType": 5126,
      "count": 245,
      "max": [
        0.9545999765396118,
        0.7039600014686584
      ],
      "min": [
        0.08393000066280365,
        0.026900000870227814
      ],
      "type": "VEC2"
    },
    {
      "bufferView": 0,
      "componentType": 5125,
      "count": 405,
      "type": "SCALAR"
    },
    {
      "bufferView": 2,
      "byteOffset": 5880,
      "componentType": 5126,
      "count": 3370,
      "max": [
        130.41183471679688,
        318.9541320800781,
        136.39117431640625
      ],
      "min": [
        -144.7979736328125,
        -309.5660705566406,
        -35.97892761230469
      ],
      "type": "VEC3"
    },
    {
      "bufferView": 2,
      "byteOffset": 46320,
      "componentType": 5126,
      "count": 3370,
      "max": [
        1.0,
        0.9997885227203369,
        0.9995536208152771
      ],
      "min": [
        -1.0,
        -0.9997841119766235,
        -0.9999648928642273
      ],
      "type": "VEC3"
    },
    {
      "bufferView": 1,
      "byteOffset": 1960,
      "componentType": 5126,
      "count": 3370,
      "max": [
        0.9876499772071838,
        1.0003199577331543
      ],
      "min": [
        0.0010499999625608325,
        -0.16345000267028809
      ],
      "type": "VEC2"
    },
    {
      "bufferView": 0,
      "byteOffset": 1620,
      "componentType": 5125,
      "count": 9726,
      "type": "SCALAR"
    }
  ],
  "asset": {
    "extras": {
      "author": "Hikan (https://sketchfab.com/cerd1232)",
      "license": "CC-BY-4.0 (http://creativecommons.org/licenses/by/4.0/)",
      "source": "https://sketchfab.com/3d-models/porsche-911-gt2-rs-weissach-2018-35d042abed2741899acbb6f538529734",
      "title": "Porsche 911 GT2 RS Weissach 2018"
    },
    "generator": "Sketchfab-15.18.0",
    "version": "2.0"
  },
  "bufferViews": [
    {
      "buffer": 0,
      "byteLength": 40524,
      "name": "floatBufferViews",
      "target": 34963
    },
    {
      "buffer": 0,
      "byteLength": 28920,
      "byteOffset": 40524,
      "byteStride": 8,
      "name": "floatBufferViews",
      "target": 34962
    },
    {
      "buffer": 0,
      "byteLength": 86760,
      "byteOffset": 69444,
      "byteStride": 12,
      "name": "floatBufferViews",
      "target": 34962
    }
  ],
  "buffers": [
    {
      "byteLength": 156204,
      "uri": "scene.bin"
    }
  ],
  "images": [
    {
      "uri": "textures/material_baseColor.png"
    }
  ],
  "materials": [
    {
      "doubleSided": true,
      "name": "default",
      "pbrMetallicRoughness": {
        "baseColorFactor": [
          0.8,
          0.8,
          0.8,
          1.0
        ],
        "metallicFactor": 0.0
      }
    },
    {
      "doubleSided": true,
      "name": "material",
      "pbrMetallicRoughness": {
        "baseColorTexture": {
          "index": 0
        },
        "metallicFactor": 0.0
      }
    }
  ],
  "meshes": [
    {
      "name": "Object_0",
      "primitives": [
        {
          "attributes": {
            "NORMAL": 1,
            "POSITION": 0,
            "TEXCOORD_0": 2
          },
          "indices": 3,
          "material": 0,
          "mode": 4
        }
      ]
    },
    {
      "name": "Object_1",
      "primitives": [
        {
          "attributes": {
            "NORMAL": 5,
            "POSITION": 4,
            "TEXCOORD_0": 6
          },
          "indices": 7,
          "material": 1,
          "mode": 4
        }
      ]
    }
  ],
  "nodes": [
    {
      "children": [
        1
      ],
      "matrix": [
        1.0,
        0.0,
        0.0,
        0.0,
        0.0,
        2.220446049250313e-16,
        -1.0,
        0.0,
        0.0,
        1.0,
        2.220446049250313e-16,
        0.0,
        0.0,
        0.0,
        0.0,
        1.0
      ],
      "name": "Sketchfab_model"
    },
    {
      "children": [
        2,
        3
      ],
      "name": "Porsche_911_GT2_RS_Weissach_2018.obj.cleaner.materialmerger.gles"
    },
    {
      "mesh": 0,
      "name": "Object_2"
    },
    {
      "mesh": 1,
      "name": "Object_3"
    }
  ],
  "samplers": [
    {
      "magFilter": 9729,
      "minFilter": 9987,
      "wrapS": 10497,
      "wrapT": 10497
    }
  ],
  "scene": 0,
  "scenes": [
    {
      "name": "Sketchfab_Scene",
      "nodes": [
        0
      ]
    }
  ],
  "textures": [
    {
      "sampler": 0,
      "source": 0
    }
  ]
}
