<svg xmlns="http://www.w3.org/2000/svg" version="1.1" xmlns:xlink="http://www.w3.org/1999/xlink" xmlns:svgjs="http://svgjs.dev/svgjs" width="1500" height="1500" viewBox="0 0 1500 1500"><rect width="1500" height="1500" fill="#14293a">
</rect><g transform="matrix(0.6666666666666666,0,0,0.6666666666666666,249.39393939393938,438.5856950067477)">
<svg viewBox="0 0 396 247" data-background-color="#14293a" preserveAspectRatio="xMidYMid meet" height="935" width="1500" xmlns="http://www.w3.org/2000/svg" xmlns:xlink="http://www.w3.org/1999/xlink">
<g id="tight-bounds" transform="matrix(1,0,0,1,0.2400000000000091,-0.09999999999999432)">
<svg viewBox="0 0 395.52 247.2" height="247.2" width="395.52"><g><svg></svg></g><g>
<svg viewBox="0 0 395.52 247.2" height="247.2" width="395.52"><g transform="matrix(1,0,0,1,75.54432,48.9071511075182)">
<svg viewBox="0 0 244.43135999999998 149.38569778496358" height="149.38569778496358" width="244.43135999999998"><g>
<svg viewBox="0 0 244.43135999999998 149.38569778496358" height="149.38569778496358" width="244.43135999999998"><g>
<svg viewBox="0 0 244.43135999999998 149.38569778496358" height="149.38569778496358" width="244.43135999999998"><g>
<svg viewBox="0 0 244.43135999999998 149.38569778496358" height="149.38569778496358" width="244.43135999999998">
<g id="textblocktransform">
<svg viewBox="0 0 244.43135999999998 149.38569778496358" height="149.38569778496358" width="244.43135999999998" id="textblock"><g>
<svg viewBox="0 0 244.43135999999998 149.38569778496358" height="149.38569778496358" width="244.43135999999998">
<g transform="matrix(1,0,0,1,0,0)"><svg width="244.43135999999998" viewBox="2.05 -36.15 61.85 37.8" height="149.38569778496358" data-palette-color="#e9e4de">
<path d="M2.05-36.15L7.8-36.15 19.7-6.25 16.95-6.8 28.25-36.15 33.9-36.15 17.95 1.65 
2.05-36.15ZM41.15-36.15L50.45-36.15Q55.9-36.15 59.02-33.93 62.15-31.7 62.15-27L62.15-27Q62.15-24.15 60.85-22.05 59.55-19.95 
57.22-18.75 54.9-17.55 51.75-17.4L51.75-17.4 51.05-19.9Q54.7-19.8 57.6-18.6 60.5-17.4 62.2-15.25 63.9-13.1 63.9-10.15L63.9-10.15Q63.9-7.45 
62.9-5.53 61.9-3.6 60.2-2.38 58.5-1.15 56.35-0.58 54.2 0 51.9 0L51.9 0 41.15 0 41.15-36.15ZM46-20.3L51.45-20.3Q54.45-20.3 55.8-21.98 57.15-23.65 
57.15-26.05L57.15-26.05Q57.15-28.9 55.4-30.2 53.65-31.5 50.7-31.5L50.7-31.5 46-31.5 46-20.3ZM46-4.5L51.65-4.5Q53.65-4.5 55.32-5.1 57-5.7 57.97-6.95 58.95-8.2 58.95-10.1L58.95-10.1Q58.95-12.2 
57.82-13.4 56.7-14.6 54.95-15.13 53.2-15.65 51.35-15.65L51.35-15.65 46-15.65 46-4.5Z" opacity="1" transform="matrix(1,0,0,1,0,0)" fill="#e9e4de" class="wordmark-text-0" data-fill-palette-color="primary" id="text-0">
</path></svg></g></svg></g></svg></g></svg></g></svg></g></svg></g></svg></g><path d="M138.591 42.907L138.591 0.306 385.178 0.306 385.178 246.894 138.591 246.894 138.591 204.293 152.063 
204.293 152.063 233.422 371.707 233.422 371.707 13.778 152.063 13.778 152.063 42.907Z" fill="#e9e4de" stroke="transparent" data-fill-palette-color="tertiary"></path></svg></g><defs>
</defs></svg><rect width="395.52" height="247.2" fill="none" stroke="none" visibility="hidden"></rect></g></svg></g></svg>